<mxfile host="app.diagrams.net" modified="2020-10-30T02:26:27.101Z" agent="5.0 (Windows NT 10.0; Win64; x64) AppleWebKit/537.36 (KHTML, like Gecko) Chrome/86.0.4240.111 Safari/537.36" etag="3sI7mZN6Xf1hxGLvQZ1c" version="13.8.7" type="github">
  <diagram id="R2lEEEUBdFMjLlhIrx00" name="Page-1">
    <mxGraphModel dx="1102" dy="614" grid="1" gridSize="10" guides="1" tooltips="1" connect="1" arrows="1" fold="1" page="1" pageScale="1" pageWidth="850" pageHeight="1100" math="0" shadow="0" extFonts="Permanent Marker^https://fonts.googleapis.com/css?family=Permanent+Marker">
      <root>
        <mxCell id="0" />
        <mxCell id="1" parent="0" />
        <mxCell id="XfD-aRzxnEFDmBdh2fPj-4" value="CLIENTE" style="swimlane;childLayout=stackLayout;horizontal=1;startSize=30;horizontalStack=0;rounded=1;fontSize=14;fontStyle=0;strokeWidth=2;resizeParent=0;resizeLast=1;shadow=0;dashed=0;align=center;" vertex="1" parent="1">
          <mxGeometry x="10" y="145" width="140" height="120" as="geometry" />
        </mxCell>
        <mxCell id="XfD-aRzxnEFDmBdh2fPj-5" value="CPF&#xa;NOME&#xa;GENERO&#xa;TELEFONE&#xa;ENDEREÇO" style="align=left;strokeColor=none;fillColor=none;spacingLeft=4;fontSize=12;verticalAlign=top;resizable=0;rotatable=0;part=1;" vertex="1" parent="XfD-aRzxnEFDmBdh2fPj-4">
          <mxGeometry y="30" width="140" height="90" as="geometry" />
        </mxCell>
        <mxCell id="XfD-aRzxnEFDmBdh2fPj-47" value="" style="edgeStyle=orthogonalEdgeStyle;rounded=0;orthogonalLoop=1;jettySize=auto;html=1;entryX=0.375;entryY=0.008;entryDx=0;entryDy=0;entryPerimeter=0;" edge="1" parent="1" source="XfD-aRzxnEFDmBdh2fPj-6" target="XfD-aRzxnEFDmBdh2fPj-7">
          <mxGeometry relative="1" as="geometry" />
        </mxCell>
        <mxCell id="XfD-aRzxnEFDmBdh2fPj-6" value="Dono" style="shape=rhombus;perimeter=rhombusPerimeter;whiteSpace=wrap;html=1;align=center;" vertex="1" parent="1">
          <mxGeometry x="20" y="300" width="120" height="60" as="geometry" />
        </mxCell>
        <mxCell id="XfD-aRzxnEFDmBdh2fPj-7" value="Animal" style="swimlane;childLayout=stackLayout;horizontal=1;startSize=30;horizontalStack=0;rounded=1;fontSize=14;fontStyle=0;strokeWidth=2;resizeParent=0;resizeLast=1;shadow=0;dashed=0;align=center;" vertex="1" parent="1">
          <mxGeometry x="20" y="400" width="160" height="120" as="geometry" />
        </mxCell>
        <mxCell id="XfD-aRzxnEFDmBdh2fPj-8" value="NOMEPET&#xa;RAÇA&#xa;COR&#xa;GENERO" style="align=left;strokeColor=none;fillColor=none;spacingLeft=4;fontSize=12;verticalAlign=top;resizable=0;rotatable=0;part=1;" vertex="1" parent="XfD-aRzxnEFDmBdh2fPj-7">
          <mxGeometry y="30" width="160" height="90" as="geometry" />
        </mxCell>
        <mxCell id="XfD-aRzxnEFDmBdh2fPj-46" value="" style="whiteSpace=wrap;html=1;" vertex="1" parent="XfD-aRzxnEFDmBdh2fPj-7">
          <mxGeometry y="120" width="160" as="geometry" />
        </mxCell>
        <mxCell id="XfD-aRzxnEFDmBdh2fPj-17" value="ATENDE" style="shape=rhombus;perimeter=rhombusPerimeter;whiteSpace=wrap;html=1;align=center;" vertex="1" parent="1">
          <mxGeometry x="180" y="175" width="120" height="60" as="geometry" />
        </mxCell>
        <mxCell id="XfD-aRzxnEFDmBdh2fPj-44" value="" style="edgeStyle=orthogonalEdgeStyle;rounded=0;orthogonalLoop=1;jettySize=auto;html=1;entryX=0;entryY=0.25;entryDx=0;entryDy=0;" edge="1" parent="1" source="XfD-aRzxnEFDmBdh2fPj-24" target="XfD-aRzxnEFDmBdh2fPj-29">
          <mxGeometry relative="1" as="geometry" />
        </mxCell>
        <mxCell id="XfD-aRzxnEFDmBdh2fPj-24" value="EMPREGADO" style="shape=rhombus;perimeter=rhombusPerimeter;whiteSpace=wrap;html=1;align=center;" vertex="1" parent="1">
          <mxGeometry x="520" y="170" width="120" height="60" as="geometry" />
        </mxCell>
        <mxCell id="XfD-aRzxnEFDmBdh2fPj-25" value="FUNCIONARIO" style="swimlane;childLayout=stackLayout;horizontal=1;startSize=30;horizontalStack=0;rounded=1;fontSize=14;fontStyle=0;strokeWidth=2;resizeParent=0;resizeLast=1;shadow=0;dashed=0;align=center;" vertex="1" parent="1">
          <mxGeometry x="340" y="140" width="160" height="120" as="geometry" />
        </mxCell>
        <mxCell id="XfD-aRzxnEFDmBdh2fPj-26" value="NOME&#xa;FUNÇÃO&#xa;TELEFONE" style="align=left;strokeColor=none;fillColor=none;spacingLeft=4;fontSize=12;verticalAlign=top;resizable=0;rotatable=0;part=1;" vertex="1" parent="XfD-aRzxnEFDmBdh2fPj-25">
          <mxGeometry y="30" width="160" height="90" as="geometry" />
        </mxCell>
        <mxCell id="XfD-aRzxnEFDmBdh2fPj-27" value="OFERECE" style="shape=rhombus;perimeter=rhombusPerimeter;whiteSpace=wrap;html=1;align=center;" vertex="1" parent="1">
          <mxGeometry x="660" y="300" width="120" height="60" as="geometry" />
        </mxCell>
        <mxCell id="XfD-aRzxnEFDmBdh2fPj-28" value="LOJA" style="swimlane;childLayout=stackLayout;horizontal=1;startSize=30;horizontalStack=0;rounded=1;fontSize=14;fontStyle=0;strokeWidth=2;resizeParent=0;resizeLast=1;shadow=0;dashed=0;align=center;" vertex="1" parent="1">
          <mxGeometry x="660" y="145" width="160" height="120" as="geometry" />
        </mxCell>
        <mxCell id="XfD-aRzxnEFDmBdh2fPj-29" value="CNPJ&#xa;TELEFONE&#xa;ENDEREÇO" style="align=left;strokeColor=none;fillColor=none;spacingLeft=4;fontSize=12;verticalAlign=top;resizable=0;rotatable=0;part=1;" vertex="1" parent="XfD-aRzxnEFDmBdh2fPj-28">
          <mxGeometry y="30" width="160" height="90" as="geometry" />
        </mxCell>
        <mxCell id="XfD-aRzxnEFDmBdh2fPj-43" value="" style="whiteSpace=wrap;html=1;" vertex="1" parent="XfD-aRzxnEFDmBdh2fPj-28">
          <mxGeometry y="120" width="160" as="geometry" />
        </mxCell>
        <mxCell id="XfD-aRzxnEFDmBdh2fPj-50" value="" style="edgeStyle=orthogonalEdgeStyle;rounded=0;orthogonalLoop=1;jettySize=auto;html=1;" edge="1" parent="1" source="XfD-aRzxnEFDmBdh2fPj-30" target="XfD-aRzxnEFDmBdh2fPj-27">
          <mxGeometry relative="1" as="geometry" />
        </mxCell>
        <mxCell id="XfD-aRzxnEFDmBdh2fPj-30" value="PRODUTOS" style="swimlane;childLayout=stackLayout;horizontal=1;startSize=30;horizontalStack=0;rounded=1;fontSize=14;fontStyle=0;strokeWidth=2;resizeParent=0;resizeLast=1;shadow=0;dashed=0;align=center;" vertex="1" parent="1">
          <mxGeometry x="640" y="410" width="160" height="120" as="geometry" />
        </mxCell>
        <mxCell id="XfD-aRzxnEFDmBdh2fPj-31" value="TIPO&#xa;MARCA&#xa;QUANTIDADE&#xa;VALOR_UND&#xa;" style="align=left;strokeColor=none;fillColor=none;spacingLeft=4;fontSize=12;verticalAlign=top;resizable=0;rotatable=0;part=1;" vertex="1" parent="XfD-aRzxnEFDmBdh2fPj-30">
          <mxGeometry y="30" width="160" height="90" as="geometry" />
        </mxCell>
        <mxCell id="XfD-aRzxnEFDmBdh2fPj-33" value="SERVIÇOS" style="swimlane;childLayout=stackLayout;horizontal=1;startSize=30;horizontalStack=0;rounded=1;fontSize=14;fontStyle=0;strokeWidth=2;resizeParent=0;resizeLast=1;shadow=0;dashed=0;align=center;" vertex="1" parent="1">
          <mxGeometry x="250" y="300" width="160" height="120" as="geometry" />
        </mxCell>
        <mxCell id="XfD-aRzxnEFDmBdh2fPj-34" value="BANHO&#xa;TOSA&#xa;CONSULTAS" style="align=left;strokeColor=none;fillColor=none;spacingLeft=4;fontSize=12;verticalAlign=top;resizable=0;rotatable=0;part=1;" vertex="1" parent="XfD-aRzxnEFDmBdh2fPj-33">
          <mxGeometry y="30" width="160" height="90" as="geometry" />
        </mxCell>
        <mxCell id="XfD-aRzxnEFDmBdh2fPj-36" value="" style="edgeStyle=orthogonalEdgeStyle;rounded=0;orthogonalLoop=1;jettySize=auto;html=1;" edge="1" parent="1" source="XfD-aRzxnEFDmBdh2fPj-29" target="XfD-aRzxnEFDmBdh2fPj-27">
          <mxGeometry relative="1" as="geometry" />
        </mxCell>
        <mxCell id="XfD-aRzxnEFDmBdh2fPj-40" style="edgeStyle=orthogonalEdgeStyle;rounded=0;orthogonalLoop=1;jettySize=auto;html=1;exitX=1;exitY=0.5;exitDx=0;exitDy=0;entryX=0.133;entryY=0.667;entryDx=0;entryDy=0;entryPerimeter=0;" edge="1" parent="1" source="XfD-aRzxnEFDmBdh2fPj-5" target="XfD-aRzxnEFDmBdh2fPj-17">
          <mxGeometry relative="1" as="geometry" />
        </mxCell>
        <mxCell id="XfD-aRzxnEFDmBdh2fPj-41" value="" style="edgeStyle=orthogonalEdgeStyle;rounded=0;orthogonalLoop=1;jettySize=auto;html=1;" edge="1" parent="1" source="XfD-aRzxnEFDmBdh2fPj-26" target="XfD-aRzxnEFDmBdh2fPj-17">
          <mxGeometry relative="1" as="geometry" />
        </mxCell>
        <mxCell id="XfD-aRzxnEFDmBdh2fPj-42" value="" style="edgeStyle=orthogonalEdgeStyle;rounded=0;orthogonalLoop=1;jettySize=auto;html=1;" edge="1" parent="1" source="XfD-aRzxnEFDmBdh2fPj-26" target="XfD-aRzxnEFDmBdh2fPj-24">
          <mxGeometry relative="1" as="geometry" />
        </mxCell>
        <mxCell id="XfD-aRzxnEFDmBdh2fPj-45" value="" style="edgeStyle=orthogonalEdgeStyle;rounded=0;orthogonalLoop=1;jettySize=auto;html=1;" edge="1" parent="1" source="XfD-aRzxnEFDmBdh2fPj-5" target="XfD-aRzxnEFDmBdh2fPj-6">
          <mxGeometry relative="1" as="geometry" />
        </mxCell>
        <mxCell id="XfD-aRzxnEFDmBdh2fPj-56" value="" style="edgeStyle=orthogonalEdgeStyle;rounded=0;orthogonalLoop=1;jettySize=auto;html=1;entryX=0;entryY=0.5;entryDx=0;entryDy=0;" edge="1" parent="1" source="XfD-aRzxnEFDmBdh2fPj-53" target="XfD-aRzxnEFDmBdh2fPj-27">
          <mxGeometry relative="1" as="geometry">
            <mxPoint x="540" y="330" as="targetPoint" />
          </mxGeometry>
        </mxCell>
        <mxCell id="XfD-aRzxnEFDmBdh2fPj-53" value="VENDA" style="swimlane;childLayout=stackLayout;horizontal=1;startSize=30;horizontalStack=0;rounded=1;fontSize=14;fontStyle=0;strokeWidth=2;resizeParent=0;resizeLast=1;shadow=0;dashed=0;align=center;" vertex="1" parent="1">
          <mxGeometry x="430" y="410" width="160" height="120" as="geometry" />
        </mxCell>
        <mxCell id="XfD-aRzxnEFDmBdh2fPj-54" value="PREÇO&#xa;DATA&#xa;FUNCIONARIO&#xa;CLIENTE&#xa;PRODUTO" style="align=left;strokeColor=none;fillColor=none;spacingLeft=4;fontSize=12;verticalAlign=top;resizable=0;rotatable=0;part=1;" vertex="1" parent="XfD-aRzxnEFDmBdh2fPj-53">
          <mxGeometry y="30" width="160" height="90" as="geometry" />
        </mxCell>
        <mxCell id="XfD-aRzxnEFDmBdh2fPj-57" value="" style="edgeStyle=orthogonalEdgeStyle;rounded=0;orthogonalLoop=1;jettySize=auto;html=1;" edge="1" parent="1" source="XfD-aRzxnEFDmBdh2fPj-34">
          <mxGeometry relative="1" as="geometry">
            <mxPoint x="630" y="370" as="targetPoint" />
          </mxGeometry>
        </mxCell>
      </root>
    </mxGraphModel>
  </diagram>
</mxfile>
